<svg xmlns="http://www.w3.org/2000/svg" version="1.1" xmlns:xlink="http://www.w3.org/1999/xlink" xmlns:svgjs="http://svgjs.dev/svgjs" width="1920" height="1080" preserveAspectRatio="none" viewBox="0 0 1920 1080">
    <g mask="url(&quot;#SvgjsMask1019&quot;)" fill="none">
        <path d="M999.93 220.76a81.93 81.93 0 1 0-94.01 134.21z" stroke="rgba(45, 212, 191, 0.53)"></path>
        <path d="M1722.45 60.27L1743.99 60.27L1743.99 81.81L1722.45 81.81z" stroke="rgba(45, 212, 191, 0.53)"></path>
        <path d="M208.74 411.91L285.14 411.91L285.14 512.71L208.74 512.71z" stroke="rgba(147, 51, 234, 0.65)"></path>
        <path d="M1078.81 754.65 a52.29 52.29 0 1 0 104.58 0 a52.29 52.29 0 1 0 -104.58 0z" stroke="rgba(34, 211, 238, 0.52)"></path>
        <path d="M215.51 725.86 a89.66 89.66 0 1 0 179.32 0 a89.66 89.66 0 1 0 -179.32 0z" fill="rgba(34, 211, 238, 0.52)"></path>
        <path d="M1561.23 1019.68 a88.92 88.92 0 1 0 177.84 0 a88.92 88.92 0 1 0 -177.84 0z" fill="rgba(34, 211, 238, 0.52)"></path>
        <path d="M416.74 554.74 a46.49 46.49 0 1 0 92.98 0 a46.49 46.49 0 1 0 -92.98 0z" fill="rgba(147, 51, 234, 0.65)"></path>
        <path d="M54.83 153.27 a105.87 105.87 0 1 0 211.74 0 a105.87 105.87 0 1 0 -211.74 0z" stroke="rgba(45, 212, 191, 0.53)"></path>
        <path d="M934.45 498.28L969.66 498.28L969.66 554.35L934.45 554.35z" fill="rgba(147, 51, 234, 0.65)"></path>
        <path d="M1151.63 927.03a93.77 93.77 0 1 0-12.25 187.14z" stroke="rgba(34, 211, 238, 0.52)"></path>
        <path d="M437.03 383.64L440.77 383.64L440.77 395.81L437.03 395.81z" stroke="rgba(34, 211, 238, 0.52)"></path>
        <path d="M844.98 753.63L890.45 753.63L890.45 799.1L844.98 799.1z" stroke="rgba(45, 212, 191, 0.53)"></path>
        <path d="M293.34 233.47L372.11 233.47L372.11 315.76L293.34 315.76z" stroke="rgba(147, 51, 234, 0.65)"></path>
        <path d="M1386.03 1005.64L1470.21 1005.64L1470.21 1102.95L1386.03 1102.95z" fill="rgba(45, 212, 191, 0.53)"></path>
        <path d="M1772.32 247.54a18.24 18.24 0 1 0 32.58 16.4z" stroke="rgba(147, 51, 234, 0.65)"></path>
        <path d="M472.23 920.31 a27.47 27.47 0 1 0 54.94 0 a27.47 27.47 0 1 0 -54.94 0z" stroke="rgba(147, 51, 234, 0.65)"></path>
        <path d="M1632.06 995.13a69.34 69.34 0 1 0-76.71-115.54z" fill="rgba(45, 212, 191, 0.53)"></path>
        <path d="M101.93 135.45L189.95 135.45L189.95 239.69L101.93 239.69z" stroke="rgba(45, 212, 191, 0.53)"></path>
        <path d="M1439.56 274.14 a91.92 91.92 0 1 0 183.84 0 a91.92 91.92 0 1 0 -183.84 0z" fill="rgba(34, 211, 238, 0.52)"></path>
        <path d="M1325.49 139.4 a47.8 47.8 0 1 0 95.6 0 a47.8 47.8 0 1 0 -95.6 0z" stroke="rgba(34, 211, 238, 0.52)"></path>
        <path d="M819.1 200.19a57.78 57.78 0 1 0-4.31 115.48z" fill="rgba(34, 211, 238, 0.52)"></path>
        <path d="M743.59 683L802.54 683L802.54 741.95L743.59 741.95z" fill="rgba(45, 212, 191, 0.53)"></path>
        <path d="M424.5 984.56 a27.38 27.38 0 1 0 54.76 0 a27.38 27.38 0 1 0 -54.76 0z" stroke="rgba(147, 51, 234, 0.65)"></path>
    </g>
    <defs>
        <mask id="SvgjsMask1019">
            <rect width="1920" height="1080" fill="#ffffff"></rect>
        </mask>
    </defs>
</svg>